<?xml version="1.0" standalone="no"?>
<!DOCTYPE svg PUBLIC "-//W3C//DTD SVG 20010904//EN"
 "http://www.w3.org/TR/2001/REC-SVG-20010904/DTD/svg10.dtd">
<svg version="1.0" xmlns="http://www.w3.org/2000/svg"
 width="30px" height="30px" viewBox="0 0 654.000000 634.000000"
 preserveAspectRatio="xMidYMid meet" >

<g transform="translate(0.000000,634.000000) scale(0.100000,-0.100000)"
fill="#999999" stroke="none">
<path d="M1300 4615 l0 -455 1970 0 1970 0 0 455 0 455 -1970 0 -1970 0 0
-455z"/>
<path d="M1300 3160 l0 -430 1970 0 1970 0 0 430 0 430 -1970 0 -1970 0 0
-430z"/>
<path d="M1300 1710 l0 -440 1970 0 1970 0 0 440 0 440 -1970 0 -1970 0 0
-440z"/>
</g>
</svg>
