<?xml version="1.0" standalone="no"?>
<!DOCTYPE svg PUBLIC "-//W3C//DTD SVG 20010904//EN"
 "http://www.w3.org/TR/2001/REC-SVG-20010904/DTD/svg10.dtd">
<svg version="1.0" xmlns="http://www.w3.org/2000/svg"
 width="20px" height="20px" viewBox="0 0 395.000000 380.000000"
 preserveAspectRatio="xMidYMid meet">

<g transform="translate(0.000000,380.000000) scale(0.100000,-0.100000)"
fill="#999999" stroke="none">
<path d="M7 3793 c-4 -3 -7 -237 -7 -520 l0 -513 520 0 520 0 0 520 0 520
-513 0 c-283 0 -517 -3 -520 -7z"/>
<path d="M1457 3793 c-4 -3 -7 -237 -7 -520 l0 -513 520 0 520 0 0 520 0 520
-513 0 c-283 0 -517 -3 -520 -7z"/>
<path d="M2910 3280 l0 -520 520 0 520 0 -2 518 -3 517 -517 3 -518 2 0 -520z"/>
<path d="M0 1900 l0 -520 520 0 520 0 0 520 0 520 -520 0 -520 0 0 -520z"/>
<path d="M1455 2408 c-3 -7 -4 -240 -3 -518 l3 -505 518 -3 517 -2 0 520 0
520 -515 0 c-403 0 -517 -3 -520 -12z"/>
<path d="M2910 1900 l0 -520 518 2 517 3 0 515 0 515 -517 3 -518 2 0 -520z"/>
<path d="M2 523 l3 -518 517 -3 518 -2 0 520 0 520 -520 0 -520 0 2 -517z"/>
<path d="M1452 523 l3 -518 518 -3 517 -2 0 520 0 520 -520 0 -520 0 2 -517z"/>
<path d="M2910 520 l0 -520 518 2 517 3 3 518 2 517 -520 0 -520 0 0 -520z"/>
</g>
</svg>
