<svg xmlns:xlink="http://www.w3.org/1999/xlink" xmlns="http://www.w3.org/2000/svg" viewBox="0 0 44.1 50.3" width="100"  height="100" ><defs><style>.cls-1{fill:#ecda24;}.cls-2{fill:#d01125;}.cls-3{fill:#34aa37;}.cls-4{fill:#2b4891;}</style></defs><title>資產 2</title><g id="圖層_2" data-name="圖層 2"><g id="图层_1" data-name="图层 1"><g id="c"><path class="cls-1" d="M11.7,29.2c-.1,0-.1.2-.1.3h.2Zm0-.5h0c-.1-.1-.2.2-.2.2h.1v.2l.2-.1-.1-.3Zm-.2-.7.1.3c.2.1.2-.2.1-.2v-.2c-.2-.1-.2.1-.2.1Zm0-3.4h0l-.1.2h.2c0-.1.1-.3-.1-.3s-.1,0,0,.1Zm.1-3.9v-.2c-.1-.1-.1.1,0,.2Zm0-.9c-.1,0-.1.1-.1.2h.2Zm0-2h.2l-.1-.2a.31.31,0,0,0,.1-.2l-.1.1C11.5,17.6,11.7,17.6,11.6,17.8Zm.2-.4Zm6.4-4.6V11.4h-.1v-.5h0v-.2h.1a.35.35,0,0,0-.1-.2V9.9H18l-.1-.4-.2-.1V9.2h-.1V8.7h-.1L17.4,8h-.1V7.7h-.1V7.5h-.1V7.2L16.8,7l-.1-.2h-.2v.1l-.2.1c0-.1.1-.3,0-.5s-.2,0-.2-.1V6.3l-.2-.2-.3.1.1.2h.1v.2h.1l.1.2h.2l.1.2h.1v.2h-.2L16.1,7c-.2-.1-.4,0-.5-.1s0-.3-.1-.3h-.2v.1l-.2.2v.2h-.2v.2h-.1v.1l-.4.3v.1h-.1V8h-.2v.1l-.2.1v.1c0-.1.1.1.1.1l-.2.1v.2a.9.9,0,0,0,.5-.1l-.1.6h-.1v.3H14c0,.1,0,.2-.1.2l-.2.1V10c-.1.1-.2,0-.3.1v.1h-.2l-.1.3-.2.1v.2h.2V11H13v.2h-.1v.2h-.1v.1h-.1v.4h-.1v.2h-.1v.2l-.2.1v.4h-.1V13h-.1c-.1.3,0,.4-.1.6l-.2.1-.1.2h-.1c-.1.1.1.2.1.2a.6.6,0,0,1-.1.4h-.1v.1c.1.1,0,.1.1.2h.1v.4h-.1v.2h-.1V16h-.1a.44.44,0,0,0,.1.3h-.1a4.05,4.05,0,0,1,0,1.1h-.1v.2c.1,0,.2,0,.2.1s0,0-.1.1v.1h.1l-.1.2.2.1-.1.2h-.1c-.1.2,0,.5,0,.6-.2,0-.1-.1-.3,0v.1h.1v.5c.1,0,.1-.1.2-.1v.2h.1v.2l-.2.1c0,.1,0,.1.1.2l-.1.2h-.1c-.1,0,.1.1.2.2s-.1.5,0,.6c-.4,0-.2.2-.1.2l-.1.1v.1h.1v.2s-.3.1-.2.2h.1v.2h.1l.1.2-.1.2h-.2v.2h.2V23h-.1l-.1.1v.1h.2l.1.3-.1.2h-.2v.2c.1,0,.2-.1.4-.1-.1.1,0,.2-.1.4h-.2v.2h-.1v-.2s-.3.2-.1.2v.1l.1.1V25h.2v.2h-.2v.2c-.1,0,0-.2-.2-.2v.2H11v.1l.2-.1v.2l.2.1v.1l-.1.1h-.1c0,.1.1.3.1.4h-.1v.2c-.1,0-.1-.1-.2-.1-.1.2,0,.3-.1.5.1.1.1-.1.2-.1l.1.2h.1c.1,0-.2.2-.2.2s.1.1.1.2h-.1v.3s-.1,0-.1-.2c-.1,0-.1.4,0,.4s0-.3.1-.2v.1h.1v.3h0c-.1,0,0,.1-.1.2h.1v-.1h.1v.5h-.1v.1l.2.5v.1l-.1.2h-.1c0,.1.2.2.2.2v.5h.1v.1h-.1l.1.2-.1.1h.1a1.27,1.27,0,0,0,.1.6h.5v.2h.1c0,.1,0,0-.1.1l.1.1v.2h.1v.3l.2.1.1.2.2.1c0,.1-.1.3,0,.4l.1.1h.2v-.2H13l.1-.1v-.3H13v-.1h-.1v-.3l.3.1.1.2.2.1v-.2h-.1v-.2h-.1V32a.1.1,0,0,0,.1-.1l-.3-1.6v-.2l-.2-.1v-.2h.5a.37.37,0,0,0,.3.2v-.1l.2-.1v-.2h.4s0,.1.2.1l.1-.1v.1h.2l.1.2H15v.2h.1l.1.2h.2l.1-.3h.1c0-.1-.1-.1-.1-.2l.2-.1c0-.2-.1-.4,0-.6l.2-.2v-.4H16v-.1l-.1-.1H16l-.1-.1.1-.1v-.2l.3-.1.1.1c.1-.1,0-.3,0-.5h.2l.1-.2h.2v-.4H17v-.1h-.1v-.1H17l.1-.5h.1c0-.1,0-.2-.1-.2v-.1h.1v-.5h.1v-.1h-.1v-.5h.1v-.9h-.2c0-.3-.1-.3-.1-.5h.1l.1-2h.1V20.2h.1V20c0,.1-.1-.1-.1-.1h.1V19h.1l-.1-.2h.1c.1-.4,0-.6.1-1h.1v-.6h-.1c.1-.1,0-.1.2-.2V16h.1l.1-.6h.1c.1-.6,0-1,.1-1.6h-.1v-.6h.1v-.4Zm-5.3-1.9C12.9,10.8,12.8,10.9,12.9,10.9ZM11.5,23.4C11.3,23.4,11.5,23.6,11.5,23.4Z"/><path class="cls-2" d="M4.5,16.9h0l.1.1c0-.1.1-.2-.1-.2S4.4,17,4.5,16.9Zm-.2.3h0c.2.1.2-.1,0-.1C4.3,17.1,4.2,17.2,4.3,17.2Zm-.1.6h0c0-.1.2-.1.1-.2l-.1-.1H3.9c-.1,0,0,.1-.1.2Zm0,5c-.1,0,0,.1-.1.2h.1C4.2,22.9,4.3,22.8,4.2,22.8Zm1-6.6L5.1,16c-.1,0-.1.1-.1.2Zm6.3,5.3v-.2l-.2-.1c0-.1.1-.4,0-.5h-.2v-.1l-.2-.2v-.1l-.2-.1V20l-.3-.2v-.1h-.2v-.1h-.1v-.1l-.2-.2c-.1-.1,0-.2,0-.3H9.8l-.1-.3H9.6v-.2H9.5v-.2H9.4v-.2H9.3a.6.6,0,0,0-.1-.4L9,17.5v-.2H8.9l-.2-.1L8.6,17H8.4v-.1H8.2l-.1-.2H7.9l-.1-.2-.3-.1-.1-.2H7.2v.1L7,16.2v-.1H7l-.1-.2H6.7l-.2-.3H6.2v-.1H5.8l-.2.1v.1c.2-.1,0,.2,0,.2s-.1.1-.1-.1H5.4c-.1.1,0,.3,0,.4l-.2.1v.1a.6.6,0,0,0-.4.1l.2.3h.2v-.1c.1,0,.1.1.3.1v-.2s-.2-.1-.1-.2l.4-.1v.1H6v.1c.1.1.2.2.3.2v.2H5.8l.1-.4H5.8c0,.1,0,.4-.1.5H5.6v.2H5.3v.6c.1.1.2,0,.2.2l-.2.1v.2H5.2v.1H5c-.1.1.1.2.1.2H4.9v.1H4.8V19a.9.9,0,0,1-.5-.1V19H4.2v.2s.3,0-.1.1v.1H3.9v.1l-.6.1v.1H3l-.1.2h.2l.1.2c.2-.1.1.1.2.2l-.2.2-.3-.2v.3l.2.1v.2l.2.1v.2l.2.1v.2h.1v.1l.2.1.1.2H4v.2h.1s.1.4,0,.2v.1h.2v.1h.1v.2l.2.1c.1.1-.1.2.1.2v.1H5v.1h.2v.2l.5.1.2.2h.2l.1.2c.2,0,.4-.1.5,0v.2h.2v.1H7v.1h.1l.1.2h.2s.1.2.2.2-.1-.2.2-.2v.1l.3-.3.1.2h.2v.1h.2v.1h.1c-.1,0-.2,0,0-.1h.2v.1a.37.37,0,0,0,.3-.1l.2-.2v-.1h.2v-.1c.1,0,.1.1.2.1H10v.1c.2,0,.2-.1.4-.1l.1-.4h.1v-.2h.1v-.2c0-.1.2,0,.2-.1v-.1l.2-.1V23l.2-.1v-.2h.1v-.2l.2-.1c.1-.1.1-.5.1-.5h.2v-.2h.2v-.2C11.8,21.5,11.6,21.6,11.5,21.5Z"/><path class="cls-3" d="M21.8,19.5h.1c0-.1,0-.2-.1-.2Zm.1,5.1.1-.1h.1c0-.1.1-.3-.1-.2h-.1v.2C21.8,24.4,21.8,24.6,21.9,24.6Zm-.1.4h0c.1,0,.3-.5.1-.3h-.1V25C21.7,24.9,21.7,25.1,21.8,25Zm.9-.2h0c.1,0,.1-.1,0-.1v.1Zm.4-.1c-.1,0-.2.2-.1.1v.1h.2C23.1,24.8,23.3,24.7,23.1,24.7Zm-1.3.6h0c.1-.1.1-.1,0-.1S21.7,25.3,21.8,25.3Zm.6.9.1-.1s-.2,0-.1-.1v.2C22.2,26.1,22.3,26.2,22.4,26.2Zm.2-.1h0l.1-.1C22.6,26,22.5,26.2,22.6,26.1Zm-1.3,2.2h.1c0-.1,0-.3-.1-.3s0,0-.1.1S21.2,28.3,21.3,28.3Zm0,.3v.1l.1.1v.1h.2v-.6l-.1-.1-.1.1v.2C21.5,28.5,21.3,28.6,21.3,28.6ZM20.1,31l.1-.1C20,30.8,20.1,30.9,20.1,31Zm.8.1c-.1,0,0,.1,0,0Zm1.4.2h0C22.4,31.2,21.8,31.4,22.3,31.3Zm-.2.2.1.1.1-.1v-.2h-.1C22.1,31.4,21.9,31.4,22.1,31.5Zm-2,.3c0-.1,0-.2-.1-.2s-.1.1-.1.2Zm.8.3c0-.1,0-.1-.1-.2v-.1l-.1.1h-.1c0,.1,0,.3.1.2v.1A.31.31,0,0,1,20.9,32.1Zm-.2.2v.1c.2,0,.2-.1,0-.1S20.6,32.3,20.7,32.3Zm.8,1.4.2-.1h0v-.2h-.1v-.1a.35.35,0,0,1-.2.1l.1-.5c-.1,0-.1.1-.1-.1h.2v-.1l-.2.1v-.1c0-.1-.1.1-.1.1l.1.1c0-.1.1.1.1.2h-.1v.6h.1v.2h-.1l-.1.2h.3l.1-.2h-.1l-.1-.2ZM19.8,35h.1v.1H20v.6h.1v.2l-.1-.1v.1l-.1.1v.2H20v.2h-.1a.1.1,0,0,0,.1.1v.2h-.1v.2h-.1v.2l.2.1.1.1h.2v-.2c0,.1-.1-.1-.1-.1s-.1-.1-.1-.1l.1-.1v-.2h.2c0,.1-.1.2,0,.3h.2l.1-.2h-.1v-.1h-.1l-.1-.2-.2-.1V36h-.1l.1-.4h.3l.1.4.1.1v.3l.1.1h.1v-.2l.1-.1c.1.1,0-.1.1-.2l-.2-.1v-.1l.1-.1v-.1l-.1-.1h-.1v-.1c.3,0,.2-.1.2-.1h-.2s0,.1-.2.1l-.1-.2.2-.1V35h-.2v.1h-.2V35l.1-.1v-.2h-.1v-.2l.1-.1V34h0v-.3l-.2-.1v-.1h.2v-.3h.1l-.1-.1v-.2h.1v-.4h.1l.1-.1h-.2c.1,0,.1,0,0,.1h-.4v.3h0v.1l.1.1h-.1v.1H20v.2h.1v.1H20v.2h.2l-.2.1v.7h-.1v-.1h-.1l-.1-.1h-.1v.1l.1.1A1.45,1.45,0,0,0,19.8,35Zm1.1-1.4c-.1,0,0,0-.1.1C20.9,33.7,21.4,33.6,20.9,33.6Zm.7.2c-.1,0-.1.2,0,.2S21.8,33.8,21.6,33.8Zm-1.9.3s.4-.1.1-.1C19.7,34,19.7,34,19.7,34.1Zm.9.2h0c.2.1.2-.1,0-.1S20.5,34.3,20.6,34.3Zm.3-.1c-.1,0-.1.2-.1.1v.1h.1C20.9,34.3,21,34.2,20.9,34.2Zm-.1.5h-.1l-.1-.3h-.1c-.2.1-.1.2-.1.4.2,0,.1-.1.3,0s0,.1,0,.1V35h.2v-.4C20.7,34.6,20.8,34.7,20.8,34.7Zm.4.5c0-.1,0-.2-.1-.2s0,.1-.1.2Zm-1.5.2h0c.1-.1,0-.3,0-.3S19.5,35.5,19.7,35.4Zm1.6-.3c-.1,0,0,0-.1.1C21.3,35.2,21.8,35.1,21.3,35.1Zm.5.1c-.1,0,0,0-.1.1C21.8,35.3,22.2,35.2,21.8,35.2Zm-.5.1c-.2.1-.1.2-.2.3l.1.1h.1v-.1h.1C21.3,35.6,21.4,35.3,21.3,35.3Zm-.1.5c-.1,0-.2.2,0,.2v.1C21.3,36.1,21.3,35.9,21.2,35.8Zm-.7.3c-.1,0,0,.1-.1.1S20.6,36.1,20.5,36.1Zm.3.8.1-.1h-.1l-.1-.1v-.2h-.1v.2h-.1l.1.3A.31.31,0,0,1,20.8,36.9Zm-.3-.1c.1.1.1-.1-.1-.1s0,.1,0,.2l.1-.1Zm.8.4v-.1h-.2l-.1-.2-.1.1c-.1-.1,0,0-.1.1h.1v.1h.2c0,.1.1.4-.1.3,0,0,0,.2.1.1l.1.1.1-.1v-.3C21.2,37.2,21.3,37.2,21.3,37.2Zm-.6-.3c-.1,0,0,.1-.1.1A.1.1,0,0,0,20.7,36.9Zm.1.5c-.1-.1-.1,0,0,0v.1C20.9,37.5,20.8,37.4,20.8,37.4Zm-.1.1v-.1C20.6,37.4,20.5,37.6,20.7,37.5Zm.6.5h-.2v-.1c-.2-.1.1-.2-.2-.2-.1,0,0,.1-.1.2h.1V38h-.1l-.1.2a.1.1,0,0,0,.1-.1l.3.1A.2.2,0,0,0,21.3,38Zm-.5,0-.2-.1h-.1V38h.1l.1.2C20.8,38.3,20.7,38.1,20.8,38Zm3,.3c-.1,0,0,0-.1.1h.2C23.8,38.4,24.1,38.3,23.8,38.3Zm-3.3.2s.1.2,0,.3h.2l.1-.1v-.3l-.1-.1C20.7,38.4,20.5,38.5,20.5,38.5Zm.5-.1h0l-.1.1h-.1v.2h.1v.1l.1-.1v.1h.1l.1.2.1-.1v-.3h-.2v-.2Zm-.4.7h0c-.1-.1-.2.1,0,0l-.1.1C20.8,39.2,20.7,39.1,20.6,39.1Zm0,.2-.1.1h-.1l.1.1h.1v-.1C20.7,39.4,20.8,39.2,20.6,39.3Zm.3.5c-.1,0,0,.1-.1.2h.1C21,39.9,21,39.8,20.9,39.8Zm0,.3h0l-.2.1c.1,0-.2.1.2.1C21,40.2,21,40.1,20.9,40.1Zm.2.1c-.1,0,0,0-.1.1S21.5,40.2,21.1,40.2Zm-1.3,5.6h0l.1.2H20v-.2h-.2v-.1l.1-.1H20v-.1l-.2-.1Zm.1.2h0c-.2,0-.1.3-.1.3h.1C20,46.2,20,45.9,19.9,46Zm.5.5v-.2C20.3,46.3,20.2,46.6,20.4,46.5Zm-.3.6h-.3l.1.1h.2v-.1C20.2,47.2,19.9,47.2,20.1,47.1Zm-.4-2.9c-.1-.1-.1.1-.1.2C19.6,44.3,19.8,44.2,19.7,44.2Zm-.1-.5c-.1-.1-.1.1-.1.2S19.7,43.8,19.6,43.7Zm2.9-2.5c-.1,0-.2.2,0,.2C22.5,41.3,22.7,41.1,22.5,41.2Zm.3-.4V41h-.1s0,.5.1.2l.1.1a1.09,1.09,0,0,0-.1-.5Zm-.3-.3c-.1,0-.2.2,0,.2v.2C22.7,40.9,22.5,40.5,22.5,40.5Zm-1.6-1.1c-.1,0-.3.2,0,.2v.2C21.2,39.8,21.1,39.5,20.9,39.4Zm-1.5-1.2v-.3C19.3,37.9,19.3,38.3,19.4,38.2Zm.4-.2Zm.9,2.6h0l-.2.1-.1.2h-.2V39.4h.1v-.5h-.1v-.7h.1l-.1-.8-.2.1v.2h-.2V38h-.1v.1l-.2-.2v-.2l-.2.1c0,.1.2.2.2.2.1.2,0,.5,0,.7h-.1v.2h.1v.5h-.1a5.65,5.65,0,0,1,0,1.3s-.1,0-.2.2h.2l-.1.6h.1V42h-.1v.1c.1,0,.1,0,.1.2l-.1.1h.1v.5h.1V43l.1-.1c.3-.1-.1,0,.1.1h.2v.2h-.1v.2h-.1v.1h-.1v-.2h-.2c0,.1.1.2-.1.2v.6h.1c0,.2.2-.1.1-.2s.3,0,.2.1l.2.1v.1h.2s-.1.2-.2.2v.2H20v.3l.2.1v.4h-.1v.2h0V46h0v.1c.1.1.1.3.1.6h.1c.1.1-.1,0-.1.2h.3a.22.22,0,0,1,.1-.3v-.1h-.1v-1h.1v-.1c-.1.1-.2-.5,0-.5,0-.1-.2-.3,0-.4v-.2h-.2v-.1l.2-.1v-1h.1V43c-.1.1-.2-.5,0-.5,0-.1-.2-.3,0-.4l-.1-.5h.1v-.2h.1A4.53,4.53,0,0,1,20.7,40.6Zm-.8-3.2c-.1,0-.1.3,0,.2S20.1,37.3,19.9,37.4Zm-.2.2h0l.1-.2-.2.1v.3h.1ZM22,32.9c-.1-.1-.1.1-.1.2S22.1,33,22,32.9Zm-1.4.2h0l.4-.2c0-.1,0-.3-.1-.2v-.1l-.2.1v.2h-.2C20.6,32.9,20.6,33.1,20.6,33.1Zm.9-.5h0l.1-.1c.1,0,.1-.2-.1-.1v.2h0c-.1-.1-.1,0-.1.1Zm-.5-.3c-.1-.1-.1.3-.1.4l.2-.1S20.9,32.3,21,32.3Zm.4-.3v.2h.1l.1-.2h-.2l.1-.3h-.2a.31.31,0,0,0-.2.1v.3c.1,0,.2.2.2-.1Zm-.6-.3H21c-.1-.1.2-.2-.2-.2C20.7,31.6,20.8,31.6,20.8,31.7Zm.7-.1h.1c0-.2.1-.2-.1-.3v-.1c-.1-.1,0,.1-.1.1C21.3,31.1,21.5,31.6,21.5,31.6Zm1.3-1.5h0l-.3-.2c-.1,0-.1.1,0,.1v.1Zm-2.7,1.5h0l.1.3.1.1-.2.1v.7H20v.1c.1-.1.3,0,.4,0v-.6h.1v-.5h-.1v-.2h.1v-.3h.1c0-.2-.1-.6.1-.7v-.1c-.1,0-.1,0-.1-.2h.1v-.2h-.1V30h.1l.1-.4h-.1v.1h-.3l.1.1v.3h-.1v.2h-.1v.2h.1V31h-.1v.2h-.2C20.1,31.4,20.2,31.5,20.1,31.6Zm1.6-.8Zm.2-1.3c-.1,0-.1,0-.1-.2h.1c0-.3.2-.5-.1-.6h-.1a.76.76,0,0,1-.1.4h-.1s0-.2-.1-.1v.2l.2.1v.2c-.2,0-.3,0-.4.1v.1h.1v.2h.1c0,.2-.1.1-.1.2h-.2v.2H21c.1-.2-.1,0-.2,0l.1.1v.1h-.1v.4c.2,0,.1-.1.2-.1v.1h.2v-.1h.5v-.3h.1v-.1l-.3-.1c0-.1,0-.3.1-.2v-.2h.2l-.1-.2S22,29.6,21.9,29.5Zm-.2,1.4Zm.8-2.1h0c.1-.1.1-.2-.1-.2h0l-.1.1C22.2,28.9,22.3,28.8,22.5,28.8Zm-.1-.1C22.4,28.6,22.2,28.7,22.4,28.7Zm-.5-.2c-.1-.1-.1.1-.1.2S22,28.6,21.9,28.5Zm.1-.2c-.1,0-.2.2,0,.2v-.2Zm1.1-.3c-.1,0-.2.2,0,.2V28Zm0-.4c-.1,0-.1.4,0,.4v-.4Zm.1-.8c-.1,0-.1.3,0,.2C23.2,27.1,23.4,26.8,23.2,26.8Zm-1.7.4h0l.2.1v.2h-.1v.6s-.1,0-.1.2l.2-.1V28h.1v-.1l.2-.1s.1.2.2.2l-.1-.4c-.2,0-.4,0,.1-.1h.2v-.1c.1,0,.1.1.3.1v-.2h.1v-.2h.1c.1-.2,0-.2.2-.3s-.1-.1-.1-.2h.1v-.3l-.5.1v.2h-.2l-.1.2h-.1L22,27h-.3v-.2l.2-.2v-.1h.2l-.2-.2h0l-.2.1v.1h-.2l-.1.4h-.1C21.5,26.9,21.5,27.2,21.5,27.2Zm.5.4h0C22.2,27.5,22.6,27.5,22,27.6Zm.9-1.5h0a.31.31,0,0,1,.2-.1v-.2h0v.1a.1.1,0,0,1-.1-.1C22.8,25.8,22.7,26.2,22.9,26.1Zm.3-.7c-.1-.1-.1.1-.1.2S23.3,25.5,23.2,25.4Zm-2.8,3.8c.2-.1,0,.1,0,.2h.1l.1.2h.2c0-.3,0-.7.2-.8l-.1-.2H21c0-.1-.1-.1-.2-.1v-.2h.3v-.4H21v-.1l.1-.1H21s.1-.2.1-.1v-.4H21l.1-.6s-.2,0-.1-.1l.2-.1a2.05,2.05,0,0,1,0-1.1l-.3.2c-.1.2.1.2.1.4h-.1l-.1.2h-.1v.2h.1l-.1.6h-.1l.1.2h-.1v.2l-.2.1v.3h.2l-.1.2h.2V28h-.2c-.1,0,0,0-.1.1l.2-.1h-.1a1.27,1.27,0,0,0-.1.6l.1.1h-.1l-.1.4h-.2C20.3,29.1,20.4,29.1,20.4,29.2ZM23,25.3h0c.2.1.1,0,.2-.1l-.2-.1C22.8,25.1,23,25.3,23,25.3Zm-1.4.3v.2h.1l-.1-.2.2.1v.5l.2-.1v-.2h.3c0,.2,0,.4.1-.1l.1-.4c-.2-.1-.1.1-.2-.2l-.2-.1-.2.2v.2A.49.49,0,0,1,21.6,25.6Zm-.3-.4h0V25l.1-.2h-.1v-.3h-.1v-.1h.1s0-.2.1-.1,0-.3-.1-.1h-.2v-.1H21c0,.2.1.3-.1.4s.1,0,.1.2h-.2c-.1.1.1.2.1.2V25l.4.2h0c-.1-.1-.1.1-.1.1S21.4,25.3,21.3,25.2Zm2.1-.2c-.1-.1-.1.1-.1.2C23.3,25.1,23.5,25,23.4,25Zm-1.1-3.2c.1.1-.1.3.2.2l.1-.3Zm.3-.5c-.1,0-.1.1,0,0v.2C22.7,21.5,22.7,21.3,22.6,21.3Zm.6,7.1-.3.1H23l.2-.1ZM30.5,5.7c0-.2.1-.2.1-.2s0-.3-.1-.3l.1-.2h-.1c0-.1.1-.2.1-.4h-.1V4.4h-.1V4.1s-.2,0-.2-.1,0-.4-.1-.6l-.2-.1c0-.1,0-.1.1-.2V3c-.1-.1-.1-.1-.1-.3h-.1V2.4l.1-.1c-.1-.1,0-.1-.1-.2h-.2v.1h-.1c.1,0,.2,0,0-.1h-.2V2h.2V1.8l-.2-.2-.1-.3H29l-.1-.2L28.7,1l.1-.2h-.2V.7h-.2L28.3.5c.1-.1.1-.2.2-.3-.2-.1-.2.1-.3.1L28.1,0h0V.1h-.4V.3h-.1V.4h-.1V.6h.3v.5l.2.1c0,.1-.1.1-.2.1l.1.2h.2v.1l.2.1v.2l-.2.1v.1c-.1,0-.2-.1-.3,0v.2h-.1l-.1.2h-.2v.2h-.2v.2h-.1v.2H27l-.2.2c-.1.1-.2,0-.4.1v.1h-.3l-.1.2h.1v.2l-.4.1-.2.2h-.2v.1c-.2.1,0,.3-.2.4h0v.1h-.2v.3h-.1l-.1.5h-.1v.3h-.1v.2h-.1v.5h-.1V7h-.1l-.1.6H24v.6h-.1v.2h.2c-.1.3,0,.5-.1.8h-.1v.2h-.1v.4h-.1l-.1.6h-.1c-.1.3,0,.4-.1.6h-.2c0,.1.1.1.1.2h-.1a2.77,2.77,0,0,1-.1.9H23v.4l.1-.2c0,.1,0,.2.1.2v.1c-.2.1,0,.4-.1.6H23v.2h-.1v.5h-.1l-.1.9h-.1v.5h-.1v.2h-.1v.4h.1c0,.2,0,.1-.1.2s.2,0,.1.1h-.1v.1c.1,0,.1-.1.1.1l-.2.1c-.1.2,0,.3-.1.6h-.1v.3H22c-.1.3,0,.7-.1,1h-.1v.2h-.1v.2h.4v.6H22l-.1.4h-.1l.1.1c0,.3-.1.5-.1.9h-.1l.1.2h-.1v.1h-.1c-.1.1.1.1.1.1v.1h-.1v.2h-.1v.2h-.1l.1.1c0,.2,0,.2-.1.2v.1s.2.1.1.2h-.1v.1c.1,0,.1,0,.1.2h-.1a.9.9,0,0,1-.1.5h0v.1l.1.1v.1h-.2c0,.1,0,0,.1.1v.2l-.2.1V24H21v.1h.1l.1.3c.1,0,.2-.1.3-.1v.2l.1-.1c.1-.2,0-.7.2-.8a.35.35,0,0,1-.1-.2h.1v-.3h.1c0-.1,0-.1-.1-.2v-.6h.1v-.6H22l.1-.5h0s0-.2-.1-.1v-.2l.2-.1v-.2h-.1v-.1H22c.1.1-.1.1-.1.1v-.2l.3-.1v-.2c.2-.1.2.1.4.1v.4h-.1v.2h-.2V21l.4.1.1.1v.2h-.1v.2h-.1l-.1.5h-.2c0,.1.1.1.1.2l-.2.1v.4H22l-.1.2h-.1v.2H22v.2c.1,0,.1,0,.2.1a.2.2,0,0,1,.2-.2v.2c0,.1-.2,0-.3.1.2,0-.1.1-.1.2V24h.3v.2h-.1l-.1.2c-.1,0-.2.4.1.2v.1h-.3c0,.1,0,.2.1.2l.1.4h.1V25h.1l.1-.3h.2c.1-.2,0-.7.1-.9h.2v-.5H23l-.1-.1V23h.4v.6h-.1l-.1.3h0l.1.2c-.1,0-.1-.1-.1.1h0v.2l.2.2h.2v-.1c-.2.1,0-.4,0-.5s-.1,0-.1-.2h.1v-.2h.1l.1-.6h.5a2.77,2.77,0,0,1-.1.9H24v.2h-.2v.2H24l-.1.3h-.1l.1.2h-.2v.1c.2.1,0,.4.1.5h-.1v.2h-.1l.1.2h-.1v.4h-.1v.6h-.1v.6h-.2v.3h-.1v.2H23l.1.2H23v.3c.2,0,.3,0-.1.1-.1,0-.1,0-.1-.1h-.1l-.1.1v.2c.1,0,.1.1.3.1H23v.4h.1V30h0v.1h-.2c0,.1.1.1.2.2v.2H23v.2h-.1c-.1.2,0,.5,0,.7h-.1s.1.2.1.1c0,.1.1.2-.1.2v.1c0,.2.1.3.1.5h-.1v.3h-.2c0,.1.1.4.2.4h-.1l-.1.6h-.1V34l.1.1h-.1v.2h-.1v.4h-.1v.8l.1.1-.2-.1v.3h-.1l.1.3h-.1v.5H22v.5h.1l.1.3-.2.1s.1.2.1.1c0,.1,0,.2.1.2h0s.1,0,0,.1c0-.1-.1.1-.1.1h0v.6h-.2V39h.2v.2c0-.1-.1.1-.1.1h.1v.2h.1v.2h-.1V40h.1c0,.1,0,.2-.1.2v.1l.2.1v.1c-.2,0,0,.1,0,.1l.1.2v.1h.3v-.2h.1v-.5h.1V40h.2v.1h0v-.2h-.2l.1-.2a.49.49,0,0,0,.3-.1v-.2h.1v-.2h-.1V39h.1v-.2h.1v-.2h.1l-.1-.1v-.4h.2v-.5h.1v-.2h.1c0-.2-.1-.2-.1-.4H24c.1-.2,0-.3.2-.4s-.2-.3-.2-.3l.2-.1V36h-.1c0-.2,0-.3-.2-.4v-.1H24v-.3h.1v-.1h.1v-.2h.1c0-.1,0-.1-.1-.2v-.1c.2-.1,0-.1.1-.3h.2v-.2h.1c0-.1-.1-.1-.1-.2h.1l.1-.2c-.1,0-.1,0-.1-.2h.1v-.2h.1V33h-.1v-.7h.1c0-.1-.1-.5-.2-.5h.2c0-.1.2-.1.2-.2v-.4h.2l-.1.1.2-.2c0-.2,0-.2-.1-.2v-.1c.1,0,.1-.1.1-.2s-.2.2-.1-.1l.2-.2s-.2-.3,0-.2V30h-.1v-.1h.1v-.2c-.1-.1-.2,0-.2-.2h.2l.1-.5h.1v-.2h.1v-.4h.1v-.1l-.1-.1h.1v-.5h.1v-.1H26v-.2h.1v-.1h0l.1-.4h.1v-.2h.1l.1-.7h.1v-.2h.1l-.1-.1v-.9h.1l.1-.2-.1-.2h.1v-.3h.1v-.5h.2c0-.1-.1-.1-.1-.2l.2-.1v-.4h.1c0-.2,0-.5-.1-.6h-.1c0-.2-.1-.1-.2-.2v-.5H27v-.1l.5-.4V21h.2c.1-.1,0-.4,0-.5h.1l.1-.7H28v-.5h.1V19h.1v-.4h.1v-.2h.1l-.1-.2h.1V18h.1c0-.1,0,0-.1-.1v-.1h.1v-.4l.2-.1h0c.1.1.2.1-.1-.1h-.5V17h.1a2.2,2.2,0,0,1,.1-.8h.1V16h.1c.1-.4,0-.6.1-1h.1c0-.2-.1-.2.1-.2a.35.35,0,0,1-.1-.2h.1v-.2h.1v-.2h.2c0-.1-.2-.1-.2-.2v-.1H29v-.5h.1l.1-.3h-.1v-.5h0c.1-.3,0-.4.1-.6h.1v-.6h.1v-.3h.1v-.2h.1c.1-.2,0-.3.1-.6h.1v-.2h.1l-.1-.3h.1V9.3H30c.1-.3,0-.3.1-.6h.1V8.4l.2-.1h-.3a2.48,2.48,0,0,1,.1-.9h.1l-.1-.3h.1l.1-.5h.1V6.1h.1l-.1-.4ZM23.9,22.4c-.2.1-.1.3-.2.3h-.2c0-.2-.1-.2.1-.3v-.1l.3.1Zm-.1-1h0v-.3h.1V21c-.3,0,0-.2,0-.2l-.1-.2c.1-.1.2-.1.2-.2h-.1v-.2l.2-.2.3.1v.2h-.2s0,.6.1.3v.2h-.2c0,.1.1.3.1.4l-.2.2Zm.6.8h0c-.1,0-.2.2-.2.2h.1v.3h-.1v.1s-.4,0-.2-.1c-.1.1,0-.3,0-.3h.1v-.3h.1l.1-.3h.2v.1C24.5,21.7,24.4,22.1,24.4,22.2Zm.2-3.9-.2.2c-.4.2-.2-.2,0-.3v-.1h.2V18c.3-.1.1.2.2.2h-.2ZM22.9,28.4ZM26.8,1.7s.2-.5-.1-.3C26.6,1.3,26.5,1.8,26.8,1.7Zm.1-.4h.2c0-.1.1-.2-.1-.2S26.9,1.2,26.9,1.3Zm.4-.2c0-.1.1-.3,0-.2S27.1,1.2,27.3,1.1Z"/><path class="cls-4" d="M32.5,18.2l-.1-.1a.1.1,0,0,0-.1.1Zm4.1-1.3Zm1.2.1Zm3.8,6.8h0l-.1-.3h-.1v-.6h.1v-.2h-.1v-.2h-.1l-.1-.2c.1.1.1-.1.1-.1h-.1V22h-.1l-.2-.2h-.1v-.2h-.1c0-.2.1-.1.1-.2h-.2v-.1c-.2-.1,0-.1.1-.1s-.2-.1.1-.1v-.3h-.2v-.1c-.3-.2.2.1-.1-.2h-.2v-.2l-.2-.1c-.1-.1,0-.5-.2-.5l.1-.2h.1l.1-.2h.1c-.1-.2-.1-.1-.2-.2l.1-.3c.1,0,.2.1.2-.1h-.1v-.2l-.1-.1v-.2h-.1v-.3l.2.1.2-.2-.2-.1v-.1l-.4-.3v-.1h-.2v-.1h-.2V17h-.4l-.1-.2h-.4v-.1h-.2v-.1H37.2v-.1h-.7a2.72,2.72,0,0,1-.9,0v.1h-.9v.1h-.2c-.1,0,0,.1-.1.2h-.3v.2c-.2.1-.4-.1-.6-.1v-.1h-.2V17l-.2.1v.2H33v.1c.1,0,.1,0,.1.1l-.2.1v.2l-.2.1v.2h-.3V18h-.2v-.1h-.1v.4c-.2-.1-.4,0-.6,0v-.1a.9.9,0,0,1-.5-.1V18h-.5v-.1h-.4v-.1h-.2v-.1h-.2v-.1h-.5v-.1h-.4l-.1.2h-.1v.2h.2c.1.1,0,.1-.1.2l.3.2-.1.5h-.1v.4l.2.1v.2h-.1l-.1.2h-.2l-.1.6h-.2l-.1.2H28l-.1.4c-.1.1-.3,0-.4.1l-.1.2-.3-.1v.1c-.2.1-.2.2-.3.3l-.2.2v.5l.2.2v.2h.1v.5h-.1v.4l.4.1v.1H27v.2h.3v-.1h.2v.1h.2V24h.2v.2h.2v.1h.2v.1h.2v.1h.2l.1.2.3.2v.2h.2l.1.2h.2l.1.2h.2l.2.2h.2v.1h.1l.1.2h.2l.2.2h.2l.2.2h.4v-.1l.6.1v-.1h.5l.1.2h.6v.1h.3l.2.2c.2,0,.4-.2.5-.2v-.3c.1,0,.6,0,.6.1l.1.2.6.1.1.2h.4V27a.6.6,0,0,0,.4-.1v-.1H37l.1-.1v-.2h.1v.1c.1,0,0,0,.1.2h.4v-.1h.1v-.5c.1,0,.2.2.2.2l.5-.1.2-.2h.4v.1l.2-.1v-.2c.2-.1.4,0,.6,0v-.1h.8v-.1h.1v-.3H41v-.1h.1v-.2l.4.1.2-.2.1-.5h.1v-.2l.3-.1-.6-.4Z"/><path d="M6.1,43.1H3.3V35H0V32.9H9.3V35H6.1ZM40.2,35H35.4v1.9h4.4v2H35.4V41h4.8v2.1H32.7V33h7.4A13.4,13.4,0,0,1,40.2,35ZM44,33V43.1H41.2V33ZM22.1,33V43.1H19.3V33Zm4.1,10.1H23.5V33h4.6a4.24,4.24,0,0,1,2.9.7,3,3,0,0,1,1.1,2.5A2.91,2.91,0,0,1,30.7,39a6.54,6.54,0,0,1-2.9.5H26.3l-.1,3.6Zm.8-5.6c1.6,0,2.1-.3,2.1-1.3s-.5-1.3-1.8-1.3h-1v2.6ZM10.3,41.1l-.8,2H6.8L11.2,33h3.3L19,43.1H15.9l-.8-2Zm2.4-6-1.6,4h3.2Z"/><path class="cls-1" d="M11.7,29.2c-.1,0-.1.2-.1.3h.2Zm0-.5h0c-.1-.1-.2.2-.2.2h.1v.2l.2-.1-.1-.3Zm-.2-.7.1.3c.2.1.2-.2.1-.2v-.2c-.2-.1-.2.1-.2.1Zm0-3.4h0l-.1.2h.2c0-.1.1-.3-.1-.3s-.1,0,0,.1Zm.1-3.9v-.2c-.1-.1-.1.1,0,.2Zm0-.9c-.1,0-.1.1-.1.2h.2Zm0-2h.2l-.1-.2a.31.31,0,0,0,.1-.2l-.1.1C11.5,17.6,11.7,17.6,11.6,17.8Zm.2-.4Zm6.4-4.6V11.4h-.1v-.5h0v-.2h.1a.35.35,0,0,0-.1-.2V9.9H18l-.1-.4-.2-.1V9.2h-.1V8.7h-.1L17.4,8h-.1V7.7h-.1V7.5h-.1V7.2L16.8,7l-.1-.2h-.2v.1l-.2.1c0-.1.1-.3,0-.5s-.2,0-.2-.1V6.3l-.2-.2-.3.1.1.2h.1v.2h.1l.1.2h.2l.1.2h.1v.2h-.2L16.1,7c-.2-.1-.4,0-.5-.1s0-.3-.1-.3h-.2v.1l-.2.2v.2h-.2v.2h-.1v.1l-.4.3v.1h-.1V8h-.2v.1l-.2.1v.1c0-.1.1.1.1.1l-.2.1v.2a.9.9,0,0,0,.5-.1l-.1.6h-.1v.3H14c0,.1,0,.2-.1.2l-.2.1V10c-.1.1-.2,0-.3.1v.1h-.2l-.1.3-.2.1v.2h.2V11H13v.2h-.1v.2h-.1v.1h-.1v.4h-.1v.2h-.1v.2l-.2.1v.4h-.1V13h-.1c-.1.3,0,.4-.1.6l-.2.1-.1.2h-.1c-.1.1.1.2.1.2a.6.6,0,0,1-.1.4h-.1v.1c.1.1,0,.1.1.2h.1v.4h-.1v.2h-.1V16h-.1a.44.44,0,0,0,.1.3h-.1a4.05,4.05,0,0,1,0,1.1h-.1v.2c.1,0,.2,0,.2.1s0,0-.1.1v.1h.1l-.1.2.2.1-.1.2h-.1c-.1.2,0,.5,0,.6-.2,0-.1-.1-.3,0v.1h.1v.5c.1,0,.1-.1.2-.1v.2h.1v.2l-.2.1c0,.1,0,.1.1.2l-.1.2h-.1c-.1,0,.1.1.2.2s-.1.5,0,.6c-.4,0-.2.2-.1.2l-.1.1v.1h.1v.2s-.3.1-.2.2h.1v.2h.1l.1.2-.1.2h-.2v.2h.2V23h-.1l-.1.1v.1h.2l.1.3-.1.2h-.2v.2c.1,0,.2-.1.4-.1-.1.1,0,.2-.1.4h-.2v.2h-.1v-.2s-.3.2-.1.2v.1l.1.1V25h.2v.2h-.2v.2c-.1,0,0-.2-.2-.2v.2H11v.1l.2-.1v.2l.2.1v.1l-.1.1h-.1c0,.1.1.3.1.4h-.1v.2c-.1,0-.1-.1-.2-.1-.1.2,0,.3-.1.5.1.1.1-.1.2-.1l.1.2h.1c.1,0-.2.2-.2.2s.1.1.1.2h-.1v.3s-.1,0-.1-.2c-.1,0-.1.4,0,.4s0-.3.1-.2v.1h.1v.3h0c-.1,0,0,.1-.1.2h.1v-.1h.1v.5h-.1v.1l.2.5v.1l-.1.2h-.1c0,.1.2.2.2.2v.5h.1v.1h-.1l.1.2-.1.1h.1a1.27,1.27,0,0,0,.1.6h.5v.2h.1c0,.1,0,0-.1.1l.1.1v.2h.1v.3l.2.1.1.2.2.1c0,.1-.1.3,0,.4l.1.1h.2v-.2H13l.1-.1v-.3H13v-.1h-.1v-.3l.3.1.1.2.2.1v-.2h-.1v-.2h-.1V32a.1.1,0,0,0,.1-.1l-.3-1.6v-.2l-.2-.1v-.2h.5a.37.37,0,0,0,.3.2v-.1l.2-.1v-.2h.4s0,.1.2.1l.1-.1v.1h.2l.1.2H15v.2h.1l.1.2h.2l.1-.3h.1c0-.1-.1-.1-.1-.2l.2-.1c0-.2-.1-.4,0-.6l.2-.2v-.4H16v-.1l-.1-.1H16l-.1-.1.1-.1v-.2l.3-.1.1.1c.1-.1,0-.3,0-.5h.2l.1-.2h.2v-.4H17v-.1h-.1v-.1H17l.1-.5h.1c0-.1,0-.2-.1-.2v-.1h.1v-.5h.1v-.1h-.1v-.5h.1v-.9h-.2c0-.3-.1-.3-.1-.5h.1l.1-2h.1V20.2h.1V20c0,.1-.1-.1-.1-.1h.1V19h.1l-.1-.2h.1c.1-.4,0-.6.1-1h.1v-.6h-.1c.1-.1,0-.1.2-.2V16h.1l.1-.6h.1c.1-.6,0-1,.1-1.6h-.1v-.6h.1v-.4Zm-5.3-1.9C12.9,10.8,12.8,10.9,12.9,10.9ZM11.5,23.4C11.3,23.4,11.5,23.6,11.5,23.4Z"/><path class="cls-2" d="M4.5,16.9h0l.1.1c0-.1.1-.2-.1-.2S4.4,17,4.5,16.9Zm-.2.3h0c.2.1.2-.1,0-.1C4.3,17.1,4.2,17.2,4.3,17.2Zm-.1.6h0c0-.1.2-.1.1-.2l-.1-.1H3.9c-.1,0,0,.1-.1.2Zm0,5c-.1,0,0,.1-.1.2h.1C4.2,22.9,4.3,22.8,4.2,22.8Zm1-6.6L5.1,16c-.1,0-.1.1-.1.2Zm6.3,5.3v-.2l-.2-.1c0-.1.1-.4,0-.5h-.2v-.1l-.2-.2v-.1l-.2-.1V20l-.3-.2v-.1h-.2v-.1h-.1v-.1l-.2-.2c-.1-.1,0-.2,0-.3H9.8l-.1-.3H9.6v-.2H9.5v-.2H9.4v-.2H9.3a.6.6,0,0,0-.1-.4L9,17.5v-.2H8.9l-.2-.1L8.6,17H8.4v-.1H8.2l-.1-.2H7.9l-.1-.2-.3-.1-.1-.2H7.2v.1L7,16.2v-.1H7l-.1-.2H6.7l-.2-.3H6.2v-.1H5.8l-.2.1v.1c.2-.1,0,.2,0,.2s-.1.1-.1-.1H5.4c-.1.1,0,.3,0,.4l-.2.1v.1a.6.6,0,0,0-.4.1l.2.3h.2v-.1c.1,0,.1.1.3.1v-.2s-.2-.1-.1-.2l.4-.1v.1H6v.1c.1.1.2.2.3.2v.2H5.8l.1-.4H5.8c0,.1,0,.4-.1.5H5.6v.2H5.3v.6c.1.1.2,0,.2.2l-.2.1v.2H5.2v.1H5c-.1.1.1.2.1.2H4.9v.1H4.8V19a.9.9,0,0,1-.5-.1V19H4.2v.2s.3,0-.1.1v.1H3.9v.1l-.6.1v.1H3l-.1.2h.2l.1.2c.2-.1.1.1.2.2l-.2.2-.3-.2v.3l.2.1v.2l.2.1v.2l.2.1v.2h.1v.1l.2.1.1.2H4v.2h.1s.1.4,0,.2v.1h.2v.1h.1v.2l.2.1c.1.1-.1.2.1.2v.1H5v.1h.2v.2l.5.1.2.2h.2l.1.2c.2,0,.4-.1.5,0v.2h.2v.1H7v.1h.1l.1.2h.2s.1.2.2.2-.1-.2.2-.2v.1l.3-.3.1.2h.2v.1h.2v.1h.1c-.1,0-.2,0,0-.1h.2v.1a.37.37,0,0,0,.3-.1l.2-.2v-.1h.2v-.1c.1,0,.1.1.2.1H10v.1c.2,0,.2-.1.4-.1l.1-.4h.1v-.2h.1v-.2c0-.1.2,0,.2-.1v-.1l.2-.1V23l.2-.1v-.2h.1v-.2l.2-.1c.1-.1.1-.5.1-.5h.2v-.2h.2v-.2C11.8,21.5,11.6,21.6,11.5,21.5Z"/><path class="cls-3" d="M21.8,19.5h.1c0-.1,0-.2-.1-.2Zm.1,5.1.1-.1h.1c0-.1.1-.3-.1-.2h-.1v.2C21.8,24.4,21.8,24.6,21.9,24.6Zm-.1.4h0c.1,0,.3-.5.1-.3h-.1V25C21.7,24.9,21.7,25.1,21.8,25Zm.9-.2h0c.1,0,.1-.1,0-.1v.1Zm.4-.1c-.1,0-.2.2-.1.1v.1h.2C23.1,24.8,23.3,24.7,23.1,24.7Zm-1.3.6h0c.1-.1.1-.1,0-.1S21.7,25.3,21.8,25.3Zm.6.9.1-.1s-.2,0-.1-.1v.2C22.2,26.1,22.3,26.2,22.4,26.2Zm.2-.1h0l.1-.1C22.6,26,22.5,26.2,22.6,26.1Zm-1.3,2.2h.1c0-.1,0-.3-.1-.3s0,0-.1.1S21.2,28.3,21.3,28.3Zm0,.3v.1l.1.1v.1h.2v-.6l-.1-.1-.1.1v.2C21.5,28.5,21.3,28.6,21.3,28.6ZM20.1,31l.1-.1C20,30.8,20.1,30.9,20.1,31Zm.8.1c-.1,0,0,.1,0,0Zm1.4.2h0C22.4,31.2,21.8,31.4,22.3,31.3Zm-.2.2.1.1.1-.1v-.2h-.1C22.1,31.4,21.9,31.4,22.1,31.5Zm-2,.3c0-.1,0-.2-.1-.2s-.1.1-.1.2Zm.8.3c0-.1,0-.1-.1-.2v-.1l-.1.1h-.1c0,.1,0,.3.1.2v.1A.31.31,0,0,1,20.9,32.1Zm-.2.2v.1c.2,0,.2-.1,0-.1S20.6,32.3,20.7,32.3Zm.8,1.4.2-.1h0v-.2h-.1v-.1a.35.35,0,0,1-.2.1l.1-.5c-.1,0-.1.1-.1-.1h.2v-.1l-.2.1v-.1c0-.1-.1.1-.1.1l.1.1c0-.1.1.1.1.2h-.1v.6h.1v.2h-.1l-.1.2h.3l.1-.2h-.1l-.1-.2ZM19.8,35h.1v.1H20v.6h.1v.2l-.1-.1v.1l-.1.1v.2H20v.2h-.1a.1.1,0,0,0,.1.1v.2h-.1v.2h-.1v.2l.2.1.1.1h.2v-.2c0,.1-.1-.1-.1-.1s-.1-.1-.1-.1l.1-.1v-.2h.2c0,.1-.1.2,0,.3h.2l.1-.2h-.1v-.1h-.1l-.1-.2-.2-.1V36h-.1l.1-.4h.3l.1.4.1.1v.3l.1.1h.1v-.2l.1-.1c.1.1,0-.1.1-.2l-.2-.1v-.1l.1-.1v-.1l-.1-.1h-.1v-.1c.3,0,.2-.1.2-.1h-.2s0,.1-.2.1l-.1-.2.2-.1V35h-.2v.1h-.2V35l.1-.1v-.2h-.1v-.2l.1-.1V34h0v-.3l-.2-.1v-.1h.2v-.3h.1l-.1-.1v-.2h.1v-.4h.1l.1-.1h-.2c.1,0,.1,0,0,.1h-.4v.3h0v.1l.1.1h-.1v.1H20v.2h.1v.1H20v.2h.2l-.2.1v.7h-.1v-.1h-.1l-.1-.1h-.1v.1l.1.1A1.45,1.45,0,0,0,19.8,35Zm1.1-1.4c-.1,0,0,0-.1.1C20.9,33.7,21.4,33.6,20.9,33.6Zm.7.2c-.1,0-.1.2,0,.2S21.8,33.8,21.6,33.8Zm-1.9.3s.4-.1.1-.1C19.7,34,19.7,34,19.7,34.1Zm.9.2h0c.2.1.2-.1,0-.1S20.5,34.3,20.6,34.3Zm.3-.1c-.1,0-.1.2-.1.1v.1h.1C20.9,34.3,21,34.2,20.9,34.2Zm-.1.5h-.1l-.1-.3h-.1c-.2.1-.1.2-.1.4.2,0,.1-.1.3,0s0,.1,0,.1V35h.2v-.4C20.7,34.6,20.8,34.7,20.8,34.7Zm.4.5c0-.1,0-.2-.1-.2s0,.1-.1.2Zm-1.5.2h0c.1-.1,0-.3,0-.3S19.5,35.5,19.7,35.4Zm1.6-.3c-.1,0,0,0-.1.1C21.3,35.2,21.8,35.1,21.3,35.1Zm.5.1c-.1,0,0,0-.1.1C21.8,35.3,22.2,35.2,21.8,35.2Zm-.5.1c-.2.1-.1.2-.2.3l.1.1h.1v-.1h.1C21.3,35.6,21.4,35.3,21.3,35.3Zm-.1.5c-.1,0-.2.2,0,.2v.1C21.3,36.1,21.3,35.9,21.2,35.8Zm-.7.3c-.1,0,0,.1-.1.1S20.6,36.1,20.5,36.1Zm.3.8.1-.1h-.1l-.1-.1v-.2h-.1v.2h-.1l.1.3A.31.31,0,0,1,20.8,36.9Zm-.3-.1c.1.1.1-.1-.1-.1s0,.1,0,.2l.1-.1Zm.8.4v-.1h-.2l-.1-.2-.1.1c-.1-.1,0,0-.1.1h.1v.1h.2c0,.1.1.4-.1.3,0,0,0,.2.1.1l.1.1.1-.1v-.3C21.2,37.2,21.3,37.2,21.3,37.2Zm-.6-.3c-.1,0,0,.1-.1.1A.1.1,0,0,0,20.7,36.9Zm.1.5c-.1-.1-.1,0,0,0v.1C20.9,37.5,20.8,37.4,20.8,37.4Zm-.1.1v-.1C20.6,37.4,20.5,37.6,20.7,37.5Zm.6.5h-.2v-.1c-.2-.1.1-.2-.2-.2-.1,0,0,.1-.1.2h.1V38h-.1l-.1.2a.1.1,0,0,0,.1-.1l.3.1A.2.2,0,0,0,21.3,38Zm-.5,0-.2-.1h-.1V38h.1l.1.2C20.8,38.3,20.7,38.1,20.8,38Zm3,.3c-.1,0,0,0-.1.1h.2C23.8,38.4,24.1,38.3,23.8,38.3Zm-3.3.2s.1.2,0,.3h.2l.1-.1v-.3l-.1-.1C20.7,38.4,20.5,38.5,20.5,38.5Zm.5-.1h0l-.1.1h-.1v.2h.1v.1l.1-.1v.1h.1l.1.2.1-.1v-.3h-.2v-.2Zm-.4.7h0c-.1-.1-.2.1,0,0l-.1.1C20.8,39.2,20.7,39.1,20.6,39.1Zm0,.2-.1.1h-.1l.1.1h.1v-.1C20.7,39.4,20.8,39.2,20.6,39.3Zm.3.5c-.1,0,0,.1-.1.2h.1C21,39.9,21,39.8,20.9,39.8Zm0,.3h0l-.2.1c.1,0-.2.1.2.1C21,40.2,21,40.1,20.9,40.1Zm.2.1c-.1,0,0,0-.1.1S21.5,40.2,21.1,40.2Zm-1.3,5.6h0l.1.2H20v-.2h-.2v-.1l.1-.1H20v-.1l-.2-.1Zm.1.2h0c-.2,0-.1.3-.1.3h.1C20,46.2,20,45.9,19.9,46Zm.5.5v-.2C20.3,46.3,20.2,46.6,20.4,46.5Zm-.3.6h-.3l.1.1h.2v-.1C20.2,47.2,19.9,47.2,20.1,47.1Zm-.4-2.9c-.1-.1-.1.1-.1.2C19.6,44.3,19.8,44.2,19.7,44.2Zm-.1-.5c-.1-.1-.1.1-.1.2S19.7,43.8,19.6,43.7Zm2.9-2.5c-.1,0-.2.2,0,.2C22.5,41.3,22.7,41.1,22.5,41.2Zm.3-.4V41h-.1s0,.5.1.2l.1.1a1.09,1.09,0,0,0-.1-.5Zm-.3-.3c-.1,0-.2.2,0,.2v.2C22.7,40.9,22.5,40.5,22.5,40.5Zm-1.6-1.1c-.1,0-.3.2,0,.2v.2C21.2,39.8,21.1,39.5,20.9,39.4Zm-1.5-1.2v-.3C19.3,37.9,19.3,38.3,19.4,38.2Zm.4-.2Zm.9,2.6h0l-.2.1-.1.2h-.2V39.4h.1v-.5h-.1v-.7h.1l-.1-.8-.2.1v.2h-.2V38h-.1v.1l-.2-.2v-.2l-.2.1c0,.1.2.2.2.2.1.2,0,.5,0,.7h-.1v.2h.1v.5h-.1a5.65,5.65,0,0,1,0,1.3s-.1,0-.2.2h.2l-.1.6h.1V42h-.1v.1c.1,0,.1,0,.1.2l-.1.1h.1v.5h.1V43l.1-.1c.3-.1-.1,0,.1.1h.2v.2h-.1v.2h-.1v.1h-.1v-.2h-.2c0,.1.1.2-.1.2v.6h.1c0,.2.2-.1.1-.2s.3,0,.2.1l.2.1v.1h.2s-.1.2-.2.2v.2H20v.3l.2.1v.4h-.1v.2h0V46h0v.1c.1.1.1.3.1.6h.1c.1.1-.1,0-.1.2h.3a.22.22,0,0,1,.1-.3v-.1h-.1v-1h.1v-.1c-.1.1-.2-.5,0-.5,0-.1-.2-.3,0-.4v-.2h-.2v-.1l.2-.1v-1h.1V43c-.1.1-.2-.5,0-.5,0-.1-.2-.3,0-.4l-.1-.5h.1v-.2h.1A4.53,4.53,0,0,1,20.7,40.6Zm-.8-3.2c-.1,0-.1.3,0,.2S20.1,37.3,19.9,37.4Zm-.2.2h0l.1-.2-.2.1v.3h.1ZM22,32.9c-.1-.1-.1.1-.1.2S22.1,33,22,32.9Zm-1.4.2h0l.4-.2c0-.1,0-.3-.1-.2v-.1l-.2.1v.2h-.2C20.6,32.9,20.6,33.1,20.6,33.1Zm.9-.5h0l.1-.1c.1,0,.1-.2-.1-.1v.2h0c-.1-.1-.1,0-.1.1Zm-.5-.3c-.1-.1-.1.3-.1.4l.2-.1S20.9,32.3,21,32.3Zm.4-.3v.2h.1l.1-.2h-.2l.1-.3h-.2a.31.31,0,0,0-.2.1v.3c.1,0,.2.2.2-.1Zm-.6-.3H21c-.1-.1.2-.2-.2-.2C20.7,31.6,20.8,31.6,20.8,31.7Zm.7-.1h.1c0-.2.1-.2-.1-.3v-.1c-.1-.1,0,.1-.1.1C21.3,31.1,21.5,31.6,21.5,31.6Zm1.3-1.5h0l-.3-.2c-.1,0-.1.1,0,.1v.1Zm-2.7,1.5h0l.1.3.1.1-.2.1v.7H20v.1c.1-.1.3,0,.4,0v-.6h.1v-.5h-.1v-.2h.1v-.3h.1c0-.2-.1-.6.1-.7v-.1c-.1,0-.1,0-.1-.2h.1v-.2h-.1V30h.1l.1-.4h-.1v.1h-.3l.1.1v.3h-.1v.2h-.1v.2h.1V31h-.1v.2h-.2C20.1,31.4,20.2,31.5,20.1,31.6Zm1.6-.8Zm.2-1.3c-.1,0-.1,0-.1-.2h.1c0-.3.2-.5-.1-.6h-.1a.76.76,0,0,1-.1.4h-.1s0-.2-.1-.1v.2l.2.1v.2c-.2,0-.3,0-.4.1v.1h.1v.2h.1c0,.2-.1.1-.1.2h-.2v.2H21c.1-.2-.1,0-.2,0l.1.1v.1h-.1v.4c.2,0,.1-.1.2-.1v.1h.2v-.1h.5v-.3h.1v-.1l-.3-.1c0-.1,0-.3.1-.2v-.2h.2l-.1-.2S22,29.6,21.9,29.5Zm-.2,1.4Zm.8-2.1h0c.1-.1.1-.2-.1-.2h0l-.1.1C22.2,28.9,22.3,28.8,22.5,28.8Zm-.1-.1C22.4,28.6,22.2,28.7,22.4,28.7Zm-.5-.2c-.1-.1-.1.1-.1.2S22,28.6,21.9,28.5Zm.1-.2c-.1,0-.2.2,0,.2v-.2Zm1.1-.3c-.1,0-.2.2,0,.2V28Zm0-.4c-.1,0-.1.4,0,.4v-.4Zm.1-.8c-.1,0-.1.3,0,.2C23.2,27.1,23.4,26.8,23.2,26.8Zm-1.7.4h0l.2.1v.2h-.1v.6s-.1,0-.1.2l.2-.1V28h.1v-.1l.2-.1s.1.2.2.2l-.1-.4c-.2,0-.4,0,.1-.1h.2v-.1c.1,0,.1.1.3.1v-.2h.1v-.2h.1c.1-.2,0-.2.2-.3s-.1-.1-.1-.2h.1v-.3l-.5.1v.2h-.2l-.1.2h-.1L22,27h-.3v-.2l.2-.2v-.1h.2l-.2-.2h0l-.2.1v.1h-.2l-.1.4h-.1C21.5,26.9,21.5,27.2,21.5,27.2Zm.5.4h0C22.2,27.5,22.6,27.5,22,27.6Zm.9-1.5h0a.31.31,0,0,1,.2-.1v-.2h0v.1a.1.1,0,0,1-.1-.1C22.8,25.8,22.7,26.2,22.9,26.1Zm.3-.7c-.1-.1-.1.1-.1.2S23.3,25.5,23.2,25.4Zm-2.8,3.8c.2-.1,0,.1,0,.2h.1l.1.2h.2c0-.3,0-.7.2-.8l-.1-.2H21c0-.1-.1-.1-.2-.1v-.2h.3v-.4H21v-.1l.1-.1H21s.1-.2.1-.1v-.4H21l.1-.6s-.2,0-.1-.1l.2-.1a2.05,2.05,0,0,1,0-1.1l-.3.2c-.1.2.1.2.1.4h-.1l-.1.2h-.1v.2h.1l-.1.6h-.1l.1.2h-.1v.2l-.2.1v.3h.2l-.1.2h.2V28h-.2c-.1,0,0,0-.1.1l.2-.1h-.1a1.27,1.27,0,0,0-.1.6l.1.1h-.1l-.1.4h-.2C20.3,29.1,20.4,29.1,20.4,29.2ZM23,25.3h0c.2.1.1,0,.2-.1l-.2-.1C22.8,25.1,23,25.3,23,25.3Zm-1.4.3v.2h.1l-.1-.2.2.1v.5l.2-.1v-.2h.3c0,.2,0,.4.1-.1l.1-.4c-.2-.1-.1.1-.2-.2l-.2-.1-.2.2v.2A.49.49,0,0,1,21.6,25.6Zm-.3-.4h0V25l.1-.2h-.1v-.3h-.1v-.1h.1s0-.2.1-.1,0-.3-.1-.1h-.2v-.1H21c0,.2.1.3-.1.4s.1,0,.1.2h-.2c-.1.1.1.2.1.2V25l.4.2h0c-.1-.1-.1.1-.1.1S21.4,25.3,21.3,25.2Zm2.1-.2c-.1-.1-.1.1-.1.2C23.3,25.1,23.5,25,23.4,25Zm-1.1-3.2c.1.1-.1.3.2.2l.1-.3Zm.3-.5c-.1,0-.1.1,0,0v.2C22.7,21.5,22.7,21.3,22.6,21.3Zm.6,7.1-.3.1H23l.2-.1ZM30.5,5.7c0-.2.1-.2.1-.2s0-.3-.1-.3l.1-.2h-.1c0-.1.1-.2.1-.4h-.1V4.4h-.1V4.1s-.2,0-.2-.1,0-.4-.1-.6l-.2-.1c0-.1,0-.1.1-.2V3c-.1-.1-.1-.1-.1-.3h-.1V2.4l.1-.1c-.1-.1,0-.1-.1-.2h-.2v.1h-.1c.1,0,.2,0,0-.1h-.2V2h.2V1.8l-.2-.2-.1-.3H29l-.1-.2L28.7,1l.1-.2h-.2V.7h-.2L28.3.5c.1-.1.1-.2.2-.3-.2-.1-.2.1-.3.1L28.1,0h0V.1h-.4V.3h-.1V.4h-.1V.6h.3v.5l.2.1c0,.1-.1.1-.2.1l.1.2h.2v.1l.2.1v.2l-.2.1v.1c-.1,0-.2-.1-.3,0v.2h-.1l-.1.2h-.2v.2h-.2v.2h-.1v.2H27l-.2.2c-.1.1-.2,0-.4.1v.1h-.3l-.1.2h.1v.2l-.4.1-.2.2h-.2v.1c-.2.1,0,.3-.2.4h0v.1h-.2v.3h-.1l-.1.5h-.1v.3h-.1v.2h-.1v.5h-.1V7h-.1l-.1.6H24v.6h-.1v.2h.2c-.1.3,0,.5-.1.8h-.1v.2h-.1v.4h-.1l-.1.6h-.1c-.1.3,0,.4-.1.6h-.2c0,.1.1.1.1.2h-.1a2.77,2.77,0,0,1-.1.9H23v.4l.1-.2c0,.1,0,.2.1.2v.1c-.2.1,0,.4-.1.6H23v.2h-.1v.5h-.1l-.1.9h-.1v.5h-.1v.2h-.1v.4h.1c0,.2,0,.1-.1.2s.2,0,.1.1h-.1v.1c.1,0,.1-.1.1.1l-.2.1c-.1.2,0,.3-.1.6h-.1v.3H22c-.1.3,0,.7-.1,1h-.1v.2h-.1v.2h.4v.6H22l-.1.4h-.1l.1.1c0,.3-.1.5-.1.9h-.1l.1.2h-.1v.1h-.1c-.1.1.1.1.1.1v.1h-.1v.2h-.1v.2h-.1l.1.1c0,.2,0,.2-.1.2v.1s.2.1.1.2h-.1v.1c.1,0,.1,0,.1.2h-.1a.9.9,0,0,1-.1.5h0v.1l.1.1v.1h-.2c0,.1,0,0,.1.1v.2l-.2.1V24H21v.1h.1l.1.3c.1,0,.2-.1.3-.1v.2l.1-.1c.1-.2,0-.7.2-.8a.35.35,0,0,1-.1-.2h.1v-.3h.1c0-.1,0-.1-.1-.2v-.6h.1v-.6H22l.1-.5h0s0-.2-.1-.1v-.2l.2-.1v-.2h-.1v-.1H22c.1.1-.1.1-.1.1v-.2l.3-.1v-.2c.2-.1.2.1.4.1v.4h-.1v.2h-.2V21l.4.1.1.1v.2h-.1v.2h-.1l-.1.5h-.2c0,.1.1.1.1.2l-.2.1v.4H22l-.1.2h-.1v.2H22v.2c.1,0,.1,0,.2.1a.2.2,0,0,1,.2-.2v.2c0,.1-.2,0-.3.1.2,0-.1.1-.1.2V24h.3v.2h-.1l-.1.2c-.1,0-.2.4.1.2v.1h-.3c0,.1,0,.2.1.2l.1.4h.1V25h.1l.1-.3h.2c.1-.2,0-.7.1-.9h.2v-.5H23l-.1-.1V23h.4v.6h-.1l-.1.3h0l.1.2c-.1,0-.1-.1-.1.1h0v.2l.2.2h.2v-.1c-.2.1,0-.4,0-.5s-.1,0-.1-.2h.1v-.2h.1l.1-.6h.5a2.77,2.77,0,0,1-.1.9H24v.2h-.2v.2H24l-.1.3h-.1l.1.2h-.2v.1c.2.1,0,.4.1.5h-.1v.2h-.1l.1.2h-.1v.4h-.1v.6h-.1v.6h-.2v.3h-.1v.2H23l.1.2H23v.3c.2,0,.3,0-.1.1-.1,0-.1,0-.1-.1h-.1l-.1.1v.2c.1,0,.1.1.3.1H23v.4h.1V30h0v.1h-.2c0,.1.1.1.2.2v.2H23v.2h-.1c-.1.2,0,.5,0,.7h-.1s.1.2.1.1c0,.1.1.2-.1.2v.1c0,.2.1.3.1.5h-.1v.3h-.2c0,.1.1.4.2.4h-.1l-.1.6h-.1V34l.1.1h-.1v.2h-.1v.4h-.1v.8l.1.1-.2-.1v.3h-.1l.1.3h-.1v.5H22v.5h.1l.1.3-.2.1s.1.2.1.1c0,.1,0,.2.1.2h0s.1,0,0,.1c0-.1-.1.1-.1.1h0v.6h-.2V39h.2v.2c0-.1-.1.1-.1.1h.1v.2h.1v.2h-.1V40h.1c0,.1,0,.2-.1.2v.1l.2.1v.1c-.2,0,0,.1,0,.1l.1.2v.1h.3v-.2h.1v-.5h.1V40h.2v.1h0v-.2h-.2l.1-.2a.49.49,0,0,0,.3-.1v-.2h.1v-.2h-.1V39h.1v-.2h.1v-.2h.1l-.1-.1v-.4h.2v-.5h.1v-.2h.1c0-.2-.1-.2-.1-.4H24c.1-.2,0-.3.2-.4s-.2-.3-.2-.3l.2-.1V36h-.1c0-.2,0-.3-.2-.4v-.1H24v-.3h.1v-.1h.1v-.2h.1c0-.1,0-.1-.1-.2v-.1c.2-.1,0-.1.1-.3h.2v-.2h.1c0-.1-.1-.1-.1-.2h.1l.1-.2c-.1,0-.1,0-.1-.2h.1v-.2h.1V33h-.1v-.7h.1c0-.1-.1-.5-.2-.5h.2c0-.1.2-.1.2-.2v-.4h.2l-.1.1.2-.2c0-.2,0-.2-.1-.2v-.1c.1,0,.1-.1.1-.2s-.2.2-.1-.1l.2-.2s-.2-.3,0-.2V30h-.1v-.1h.1v-.2c-.1-.1-.2,0-.2-.2h.2l.1-.5h.1v-.2h.1v-.4h.1v-.1l-.1-.1h.1v-.5h.1v-.1H26v-.2h.1v-.1h0l.1-.4h.1v-.2h.1l.1-.7h.1v-.2h.1l-.1-.1v-.9h.1l.1-.2-.1-.2h.1v-.3h.1v-.5h.2c0-.1-.1-.1-.1-.2l.2-.1v-.4h.1c0-.2,0-.5-.1-.6h-.1c0-.2-.1-.1-.2-.2v-.5H27v-.1l.5-.4V21h.2c.1-.1,0-.4,0-.5h.1l.1-.7H28v-.5h.1V19h.1v-.4h.1v-.2h.1l-.1-.2h.1V18h.1c0-.1,0,0-.1-.1v-.1h.1v-.4l.2-.1h0c.1.1.2.1-.1-.1h-.5V17h.1a2.2,2.2,0,0,1,.1-.8h.1V16h.1c.1-.4,0-.6.1-1h.1c0-.2-.1-.2.1-.2a.35.35,0,0,1-.1-.2h.1v-.2h.1v-.2h.2c0-.1-.2-.1-.2-.2v-.1H29v-.5h.1l.1-.3h-.1v-.5h0c.1-.3,0-.4.1-.6h.1v-.6h.1v-.3h.1v-.2h.1c.1-.2,0-.3.1-.6h.1v-.2h.1l-.1-.3h.1V9.3H30c.1-.3,0-.3.1-.6h.1V8.4l.2-.1h-.3a2.48,2.48,0,0,1,.1-.9h.1l-.1-.3h.1l.1-.5h.1V6.1h.1l-.1-.4ZM23.9,22.4c-.2.1-.1.3-.2.3h-.2c0-.2-.1-.2.1-.3v-.1l.3.1Zm-.1-1h0v-.3h.1V21c-.3,0,0-.2,0-.2l-.1-.2c.1-.1.2-.1.2-.2h-.1v-.2l.2-.2.3.1v.2h-.2s0,.6.1.3v.2h-.2c0,.1.1.3.1.4l-.2.2Zm.6.8h0c-.1,0-.2.2-.2.2h.1v.3h-.1v.1s-.4,0-.2-.1c-.1.1,0-.3,0-.3h.1v-.3h.1l.1-.3h.2v.1C24.5,21.7,24.4,22.1,24.4,22.2Zm.2-3.9-.2.2c-.4.2-.2-.2,0-.3v-.1h.2V18c.3-.1.1.2.2.2h-.2ZM22.9,28.4ZM26.8,1.7s.2-.5-.1-.3C26.6,1.3,26.5,1.8,26.8,1.7Zm.1-.4h.2c0-.1.1-.2-.1-.2S26.9,1.2,26.9,1.3Zm.4-.2c0-.1.1-.3,0-.2S27.1,1.2,27.3,1.1Z"/><path class="cls-4" d="M32.5,18.2l-.1-.1a.1.1,0,0,0-.1.1Zm4.1-1.3Zm1.2.1Zm3.8,6.8h0l-.1-.3h-.1v-.6h.1v-.2h-.1v-.2h-.1l-.1-.2c.1.1.1-.1.1-.1h-.1V22h-.1l-.2-.2h-.1v-.2h-.1c0-.2.1-.1.1-.2h-.2v-.1c-.2-.1,0-.1.1-.1s-.2-.1.1-.1v-.3h-.2v-.1c-.3-.2.2.1-.1-.2h-.2v-.2l-.2-.1c-.1-.1,0-.5-.2-.5l.1-.2h.1l.1-.2h.1c-.1-.2-.1-.1-.2-.2l.1-.3c.1,0,.2.1.2-.1h-.1v-.2l-.1-.1v-.2h-.1v-.3l.2.1.2-.2-.2-.1v-.1l-.4-.3v-.1h-.2v-.1h-.2V17h-.4l-.1-.2h-.4v-.1h-.2v-.1H37.2v-.1h-.7a2.72,2.72,0,0,1-.9,0v.1h-.9v.1h-.2c-.1,0,0,.1-.1.2h-.3v.2c-.2.1-.4-.1-.6-.1v-.1h-.2V17l-.2.1v.2H33v.1c.1,0,.1,0,.1.1l-.2.1v.2l-.2.1v.2h-.3V18h-.2v-.1h-.1v.4c-.2-.1-.4,0-.6,0v-.1a.9.9,0,0,1-.5-.1V18h-.5v-.1h-.4v-.1h-.2v-.1h-.2v-.1h-.5v-.1h-.4l-.1.2h-.1v.2h.2c.1.1,0,.1-.1.2l.3.2-.1.5h-.1v.4l.2.1v.2h-.1l-.1.2h-.2l-.1.6h-.2l-.1.2H28l-.1.4c-.1.1-.3,0-.4.1l-.1.2-.3-.1v.1c-.2.1-.2.2-.3.3l-.2.2v.5l.2.2v.2h.1v.5h-.1v.4l.4.1v.1H27v.2h.3v-.1h.2v.1h.2V24h.2v.2h.2v.1h.2v.1h.2v.1h.2l.1.2.3.2v.2h.2l.1.2h.2l.1.2h.2l.2.2h.2v.1h.1l.1.2h.2l.2.2h.2l.2.2h.4v-.1l.6.1v-.1h.5l.1.2h.6v.1h.3l.2.2c.2,0,.4-.2.5-.2v-.3c.1,0,.6,0,.6.1l.1.2.6.1.1.2h.4V27a.6.6,0,0,0,.4-.1v-.1H37l.1-.1v-.2h.1v.1c.1,0,0,0,.1.2h.4v-.1h.1v-.5c.1,0,.2.2.2.2l.5-.1.2-.2h.4v.1l.2-.1v-.2c.2-.1.4,0,.6,0v-.1h.8v-.1h.1v-.3H41v-.1h.1v-.2l.4.1.2-.2.1-.5h.1v-.2l.3-.1-.6-.4Z"/><path d="M6.1,43.1H3.3V35H0V32.9H9.3V35H6.1ZM40.2,35H35.4v1.9h4.4v2H35.4V41h4.8v2.1H32.7V33h7.4A13.4,13.4,0,0,1,40.2,35ZM44,33V43.1H41.2V33ZM22.1,33V43.1H19.3V33Zm4.1,10.1H23.5V33h4.6a4.24,4.24,0,0,1,2.9.7,3,3,0,0,1,1.1,2.5A2.91,2.91,0,0,1,30.7,39a6.54,6.54,0,0,1-2.9.5H26.3l-.1,3.6Zm.8-5.6c1.6,0,2.1-.3,2.1-1.3s-.5-1.3-1.8-1.3h-1v2.6ZM10.3,41.1l-.8,2H6.8L11.2,33h3.3L19,43.1H15.9l-.8-2Zm2.4-6-1.6,4h3.2ZM35.6,49.6H33.7v-.3h1.9V49l-2,.1-.1-.3h1.1l.5-.5H34v-.2h3.8v.2H37c.5.3.9.6,1.2.8l-.2.3c-.2-.1-.3-.3-.6-.4l-1.3.1v.3h1.8v.2H36.1v.3h2.4v.2H33.1v-.2h2.4l.1-.3Zm-2.4-2.1h0l5.1-.1v.1a3.55,3.55,0,0,1-.2,1l-.3-.1.2-.7H33.5v.8h-.3Zm2.4-2H33.4v-.2h2.2V45h.3v.3h2.2v.2H35.9v.4h1.9v.2H33.6v-.2h1.9v-.4Zm-1.8,1.7h0v-.8h3.8v.7H33.8Zm.3-.6h0v.3h3.2v-.3H34.1Zm2.4,1.7H35.4l-.4.5,1.7-.1-.3-.2Zm4.1-1.8H38.9v-.3h1.7V45h.3v5.3h-.3V48.9a6,6,0,0,1-1.5.9l-.2-.3a15.06,15.06,0,0,0,1.7-1Zm3.2-.8.2.3a8.35,8.35,0,0,1-1.7,1.3v2.4l.1.1.1.1h1.2a.35.35,0,0,0,.1-.2v-1h.3a11.35,11.35,0,0,1-.1,1.4.31.31,0,0,1-.2.1H42.3c-.1,0-.2,0-.2-.1s-.1-.1-.1-.2V45.1h.3V47A13.5,13.5,0,0,1,43.8,45.7Z"/></g></g></g></svg>